<?xml version="1.0" encoding="UTF-8"?>
<!-- Uploaded to: SVG Find, www.svgrepo.com, Generator: SVG Find Mixer Tools -->
<svg fill="#000000" width="800px" height="800px" version="1.1" viewBox="144 144 512 512" xmlns="http://www.w3.org/2000/svg">
 <g>
  <path d="m502.18 430.46v-15.742c0-64.473-52.426-116.9-116.9-116.9h-15.742v-46.84c-83.445 7.8711-148.7 78.09-148.7 163.74 0 90.844 73.602 164.45 164.45 164.45 85.648 0 155.87-65.258 163.74-148.7zm-116.9 86.195c-56.285 0-101.94-45.656-101.94-101.94 0-56.363 45.656-102.02 101.94-102.02 56.363 0 102.02 45.656 102.02 102.02 0.003906 56.285-45.656 101.94-102.02 101.94z"/>
  <path d="m412.44 414.69c0 14.98-12.145 27.129-27.129 27.129-14.98 0-27.125-12.148-27.125-27.129s12.145-27.125 27.125-27.125c14.984 0 27.129 12.145 27.129 27.125"/>
  <path d="m385.28 282.07c73.289 0 132.64 59.355 132.64 132.64h61.246c0-107.14-86.75-193.89-193.89-193.89z"/>
  <path d="m396.98 351.1c0 6.4414-5.2227 11.668-11.668 11.668-6.4414 0-11.664-5.2266-11.664-11.668s5.2227-11.668 11.664-11.668c6.4453 0 11.668 5.2266 11.668 11.668"/>
  <path d="m336.5 395.03c0 6.4414-5.2227 11.668-11.668 11.668-6.4414 0-11.664-5.2266-11.664-11.668s5.2227-11.668 11.664-11.668c6.4453 0 11.668 5.2266 11.668 11.668"/>
  <path d="m359.6 466.13c0 6.4414-5.2227 11.664-11.664 11.664-6.4453 0-11.668-5.2227-11.668-11.664 0-6.4453 5.2227-11.668 11.668-11.668 6.4414 0 11.664 5.2227 11.664 11.668"/>
  <path d="m434.36 466.13c0 6.4414-5.2227 11.664-11.664 11.664-6.4453 0-11.668-5.2227-11.668-11.664 0-6.4453 5.2227-11.668 11.668-11.668 6.4414 0 11.664 5.2227 11.664 11.668"/>
  <path d="m457.46 395.03c0 6.4414-5.2227 11.668-11.668 11.668-6.4414 0-11.664-5.2266-11.664-11.668s5.2227-11.668 11.664-11.668c6.4453 0 11.668 5.2266 11.668 11.668"/>
 </g>
</svg>