<?xml version="1.0" encoding="UTF-8"?>
<!-- Uploaded to: SVG Find, www.svgrepo.com, Generator: SVG Find Mixer Tools -->
<svg fill="#000000" width="800px" height="800px" version="1.1" viewBox="144 144 512 512" xmlns="http://www.w3.org/2000/svg">
 <g>
  <path d="m214.63 487.44v27.535c0 7.5117 6.0938 13.586 13.586 13.586h43.91c7.5117 0 13.586-6.0938 13.586-13.586v-17.68c-24.293-1.8281-48.461-4.457-65.164-8.2031-2.0781-0.45703-4.0156-1.0391-5.918-1.6523z"/>
  <path d="m450.14 428.91h5.7461c0.42578-1.0703 0.86719-2.1406 1.3242-3.1953l-4.0625-4.0781c-4.9297-4.9141-7.6211-11.445-7.6211-18.391 0-6.9414 2.707-13.477 7.5898-18.391l10.848-10.832c4.9297-4.9141 11.445-7.6055 18.391-7.6055 6.9414 0 13.461 2.707 18.391 7.6211l4.0938 4.0625c1.0391-0.45703 2.125-0.91406 3.1953-1.3242v-5.7617c0-14.344 11.652-26.008 25.977-26.008h15.32c10.203 0 18.941 5.9336 23.223 14.484 8.2969-4.5508 16.453-11.051 16.453-19.176 0-16.578-18.578-19.223-33.816-18.562-8.8008 0.37891-14.879 6.5039-18.516 11.617-11.715-30.133-34.621-79.602-60.488-85.441-26.137-5.9023-68.203-11.855-103.2-11.855-35.031 0-77.066 5.9688-103.23 11.855-25.859 5.8438-48.766 55.309-60.48 85.445-3.6211-5.1172-9.6836-11.242-18.516-11.617-15.258-0.66016-33.785 1.9844-33.785 18.562 0 12.391 18.91 21.082 28.449 24.656-6.832 15.383-3.9375 36.023-0.125 57.34 4.0625 22.688 10.738 44.664 38.84 50.98 40.871 9.1953 132.99 11.539 148.86 11.539 7.0078 0 28.875-0.45703 54.68-1.7617-2.1875-3.793-3.543-8.1562-3.543-12.832v-15.32c-0.015624-14.348 11.637-26.012 26.012-26.012zm-177.25-10.109h-22.074-27.129c-21.098 0-5.0078-41.406 4.0312-41.895 9.0078-0.51953 45.172 12.547 50.695 17.57 5.5117 5.0078 2.5039 24.324-5.5234 24.324zm143.99 30.527c0 3.1328-2.5508 5.6992-5.6836 5.6992h-76.469c-3.1328 0-5.6836-2.5664-5.6836-5.6992v-8.6289c0-3.1484 2.5508-5.6836 5.6836-5.6836h76.469c3.1328 0 5.6836 2.5508 5.6836 5.6836zm-43.91-122.27c-40.871 0-93.457 5.3047-139.82 12.281 13.414-33.156 31.582-65.336 41.941-67.684 24.043-5.4336 64.914-11.273 97.879-11.273 32.938 0 73.824 5.8398 97.848 11.273 10.547 2.3789 28.48 34.133 41.973 67.684-46.359-6.957-98.945-12.281-139.82-12.281z"/>
  <path d="m643.04 454.93c0-5.4141-4.3594-9.793-9.7773-9.793h-17.648c-1.875-8.0625-5.0703-15.633-9.3203-22.465l12.484-12.484c3.8086-3.8242 3.8398-10.012 0-13.855l-10.832-10.816c-3.8086-3.8242-10.027-3.8242-13.84 0l-12.484 12.469c-6.8633-4.25-14.422-7.4141-22.484-9.3203v-17.633c0-5.4141-4.3945-9.8086-9.8086-9.8086h-15.32c-5.3828 0-9.7773 4.3945-9.7773 9.8086v17.633c-8.0625 1.9062-15.617 5.0859-22.484 9.3203l-12.484-12.484c-3.8086-3.8242-10.027-3.8242-13.84 0l-10.832 10.832c-3.8398 3.8242-3.8398 10.027 0 13.855l12.484 12.484c-4.25 6.8477-7.4453 14.406-9.3516 22.465h-17.617c-5.4141 0-9.8086 4.3945-9.8086 9.793v15.32c0 5.3984 4.3945 9.793 9.8086 9.793h17.617c1.9062 8.0781 5.1016 15.617 9.3516 22.484l-12.484 12.484c-3.8398 3.8242-3.8398 10.027 0 13.855l10.832 10.832c3.8086 3.8242 10.027 3.8242 13.84 0l12.484-12.484c6.8633 4.25 14.422 7.4297 22.484 9.3203v17.648c0 5.4141 4.3594 9.793 9.7773 9.793h15.32c5.4141 0 9.8086-4.375 9.8086-9.793v-17.633c8.0625-1.9062 15.617-5.0859 22.484-9.3359l12.484 12.484c3.8086 3.8242 10.027 3.8242 13.84 0l10.832-10.832c3.8086-3.8242 3.8086-10.027 0-13.855l-12.484-12.484c4.25-6.8477 7.4453-14.406 9.3203-22.484h17.648c5.4141 0 9.7773-4.3594 9.7773-9.7773zm-101.36 45.184c-20.719 0-37.52-16.801-37.52-37.535s16.781-37.535 37.52-37.535c20.75 0 37.551 16.801 37.551 37.535 0 20.738-16.801 37.535-37.551 37.535z"/>
 </g>
</svg>